<?xml version="1.0" standalone="no"?>
<!DOCTYPE svg PUBLIC "-//W3C//DTD SVG 20010904//EN"
 "http://www.w3.org/TR/2001/REC-SVG-20010904/DTD/svg10.dtd">
<svg version="1.0" xmlns="http://www.w3.org/2000/svg"
 width="900.000000pt" height="600.000000pt" viewBox="0 0 900.000000 600.000000"
 preserveAspectRatio="xMidYMid meet">

<g transform="translate(0.000000,600.000000) scale(0.100000,-0.100000)"
fill="#000000" stroke="none">
<path d="M3736 5628 c-143 -12 -146 -15 -146 -138 l0 -100 -66 -30 c-37 -16
-73 -30 -80 -30 -8 0 -41 25 -74 55 -90 83 -94 81 -244 -82 l-66 -72 0 -63 0
-62 56 -57 56 -57 -19 -58 c-22 -66 -30 -71 -135 -73 -45 -1 -63 -6 -79 -22
-20 -20 -21 -27 -14 -188 3 -91 9 -173 11 -182 8 -30 53 -39 144 -30 47 5 88
7 92 5 10 -7 58 -95 58 -108 0 -7 -16 -28 -36 -47 -61 -59 -76 -90 -69 -151 6
-51 9 -56 98 -140 117 -111 128 -113 212 -28 33 33 67 60 75 60 29 0 145 -42
163 -60 12 -11 20 -37 23 -76 11 -125 14 -127 185 -114 66 5 127 14 134 20 33
27 55 91 55 158 l1 67 48 23 c71 33 88 29 158 -33 85 -76 96 -75 181 28 176
211 177 214 70 310 l-72 65 15 44 c21 65 39 78 110 78 63 0 89 9 127 43 20 18
22 30 21 106 0 140 -14 239 -35 262 -17 19 -27 21 -106 16 -47 -2 -90 -2 -96
2 -5 3 -23 33 -40 66 l-30 60 53 63 c55 66 67 95 54 128 -4 11 -53 62 -109
114 -129 119 -137 120 -224 27 l-61 -67 -80 28 c-79 28 -80 29 -87 68 -4 21
-7 61 -7 87 -1 37 -7 53 -26 72 -27 28 -33 28 -199 13z m182 -40 c7 -7 12 -39
12 -74 0 -65 13 -113 33 -126 7 -4 47 -19 89 -33 90 -31 93 -30 169 50 29 30
59 55 69 55 18 0 210 -175 210 -192 0 -6 -25 -39 -55 -73 -31 -35 -55 -73 -55
-85 0 -12 16 -55 36 -96 41 -86 49 -90 158 -80 58 5 76 4 85 -8 17 -20 35
-264 21 -281 -6 -7 -46 -14 -95 -17 -47 -3 -91 -11 -99 -17 -20 -17 -69 -177
-62 -203 3 -13 35 -47 71 -77 36 -29 65 -61 65 -71 0 -17 -174 -220 -190 -220
-5 0 -39 27 -77 60 -48 42 -76 60 -96 60 -36 0 -162 -64 -171 -86 -4 -10 -4
-55 0 -100 6 -74 5 -83 -12 -92 -11 -5 -76 -13 -146 -17 -147 -8 -148 -8 -148
92 0 88 -12 103 -105 135 -44 15 -90 27 -101 28 -14 0 -44 -23 -83 -65 -33
-36 -67 -65 -75 -65 -18 0 -201 162 -210 186 -3 9 15 37 49 74 34 37 55 69 55
84 0 34 -67 174 -90 186 -12 6 -51 8 -103 4 -62 -5 -86 -3 -92 6 -4 7 -12 71
-17 143 -11 155 -10 157 86 157 98 1 114 13 147 105 16 44 29 90 29 103 0 14
-22 43 -65 84 -41 38 -65 68 -63 79 3 19 174 209 188 209 4 0 40 -27 79 -60
40 -33 76 -60 82 -60 23 0 177 81 183 96 4 10 4 54 0 99 -5 63 -3 83 8 92 24
21 267 30 286 11z"/>
<path d="M3740 5240 c-218 -38 -387 -211 -421 -431 -38 -245 132 -500 376
-564 317 -82 635 166 635 495 -1 236 -172 446 -407 495 -74 16 -114 17 -183 5z
m186 -73 c10 -9 -23 -78 -65 -134 -39 -54 -67 -56 -116 -7 -49 49 -90 113 -79
124 19 19 83 29 166 27 47 -1 90 -5 94 -10z m110 -51 c-2 -6 -30 -65 -60 -131
-90 -192 -84 -201 113 -197 75 1 144 5 154 8 14 4 17 -1 17 -25 0 -25 -4 -31
-22 -31 -71 -2 -267 -28 -287 -39 -19 -11 -22 -19 -18 -45 5 -30 83 -165 136
-235 24 -32 25 -34 6 -47 -10 -8 -22 -14 -25 -14 -4 0 -29 32 -56 72 -143 209
-170 220 -240 96 -18 -32 -89 -171 -100 -196 -1 -1 -13 2 -27 9 l-25 11 41 87
c82 170 95 212 71 235 -8 9 -27 16 -42 17 -72 2 -192 -2 -239 -7 l-53 -6 0 31
c0 30 1 31 48 31 63 0 209 18 250 31 59 19 47 61 -70 236 -26 40 -48 77 -48
82 0 6 9 15 20 21 17 9 25 2 68 -62 75 -111 129 -176 152 -183 33 -11 59 22
131 159 61 118 65 123 87 113 12 -6 21 -15 18 -21z m172 -165 c16 -31 33 -67
37 -79 l7 -24 -101 4 c-126 4 -140 13 -122 85 7 26 23 72 37 102 l25 55 44
-44 c24 -24 57 -68 73 -99z m-633 -8 c36 -75 34 -100 -12 -119 -20 -9 -69 -18
-109 -21 l-73 -6 14 52 c15 59 45 119 83 169 l26 34 23 -28 c13 -16 35 -52 48
-81z m685 -276 c0 -49 -65 -182 -108 -220 -19 -18 -20 -17 -41 12 -27 38 -71
131 -71 152 0 24 24 41 83 55 72 17 137 18 137 1z m-680 -50 c34 -12 35 -14
33 -59 -1 -45 -48 -168 -63 -168 -16 0 -99 102 -124 152 -41 83 -39 88 47 87
39 0 88 -6 107 -12z m328 -176 c26 -27 55 -63 65 -80 l18 -31 -28 -12 c-35
-14 -223 -22 -242 -10 -27 19 81 182 120 182 11 0 41 -22 67 -49z"/>
<path d="M3766 4795 c-53 -49 -19 -135 53 -135 49 0 81 32 81 82 0 70 -81 102
-134 53z"/>
<path d="M5336 4877 c-15 -15 -27 -42 -31 -70 -10 -63 -21 -75 -85 -82 l-56
-7 -37 55 c-20 31 -45 58 -57 62 -23 7 -153 -67 -202 -116 -38 -37 -38 -90 1
-150 l28 -46 -26 -39 c-29 -42 -29 -42 -114 -30 -51 7 -61 6 -76 -10 -20 -22
-65 -224 -59 -270 3 -30 9 -33 144 -60 16 -3 25 -16 32 -46 13 -50 8 -58 -54
-94 -46 -27 -54 -41 -56 -97 -1 -26 10 -53 42 -104 76 -119 83 -122 155 -73
24 17 51 30 61 30 21 0 111 -56 122 -77 5 -8 4 -41 -1 -74 -8 -48 -7 -63 4
-74 15 -16 142 -45 192 -45 48 0 94 48 103 105 3 25 9 47 13 49 3 2 27 7 52
11 l47 7 43 -59 c41 -56 57 -73 70 -73 4 0 57 36 118 80 132 96 135 104 74
196 l-36 54 27 41 c17 26 33 39 42 35 42 -16 112 -17 142 -2 34 18 39 30 68
179 16 82 16 88 0 106 -10 11 -44 24 -81 31 -68 13 -70 15 -80 82 l-7 44 54
40 c73 54 74 75 7 182 -28 46 -62 90 -75 99 -24 16 -42 9 -130 -47 -20 -12
-27 -10 -73 19 -56 36 -59 47 -40 130 16 71 0 85 -118 106 -54 10 -103 20
-110 22 -7 3 -23 -6 -37 -20z m142 -34 c50 -9 86 -22 89 -30 3 -8 0 -40 -6
-72 -6 -32 -9 -65 -6 -74 9 -22 111 -87 136 -87 12 0 44 14 71 30 26 17 54 30
61 30 12 0 117 -161 117 -179 0 -5 -22 -23 -49 -41 -27 -17 -55 -37 -61 -45
-15 -18 8 -140 30 -160 9 -8 40 -19 69 -25 29 -5 57 -12 62 -15 13 -9 10 -58
-10 -145 -14 -64 -19 -75 -36 -73 -11 1 -48 5 -81 9 l-62 7 -41 -61 c-22 -34
-41 -70 -41 -82 0 -11 16 -44 35 -73 19 -28 35 -57 35 -63 0 -11 -162 -124
-179 -124 -5 0 -23 22 -40 49 -54 83 -59 85 -138 67 -37 -8 -73 -22 -79 -31
-7 -9 -15 -38 -19 -64 -10 -76 -9 -76 -119 -55 -52 9 -101 21 -107 25 -9 5 -9
23 1 73 10 54 10 69 -1 82 -20 24 -114 84 -133 84 -9 0 -42 -16 -72 -35 -43
-28 -59 -33 -69 -25 -20 17 -105 155 -105 171 0 8 20 27 44 42 69 44 71 47 56
128 -7 38 -18 76 -24 84 -6 8 -38 20 -71 26 -33 6 -64 14 -69 19 -11 11 22
190 38 207 9 10 25 10 72 1 34 -6 69 -8 77 -5 17 6 97 124 97 141 0 6 -16 36
-35 66 -19 30 -35 59 -35 65 0 11 161 115 179 115 6 0 27 -24 47 -54 20 -30
42 -57 49 -60 7 -2 43 1 80 7 78 13 87 23 105 110 13 67 11 66 138 40z"/>
<path d="M5262 4590 c-118 -25 -225 -105 -283 -213 -29 -54 -34 -73 -37 -153
-5 -115 13 -181 72 -261 79 -107 184 -158 326 -158 74 0 93 4 151 32 244 115
314 404 148 614 -82 104 -250 165 -377 139z m201 -74 c20 -9 37 -20 37 -25 0
-18 -103 -101 -125 -101 -19 0 -30 13 -54 62 -45 89 -44 92 37 85 37 -3 84
-13 105 -21z m-181 -98 c21 -57 45 -109 52 -116 23 -23 52 -5 133 84 66 72 79
82 91 70 12 -12 3 -27 -62 -105 -42 -51 -76 -100 -76 -111 0 -28 40 -45 153
-66 87 -17 97 -21 95 -39 -3 -23 -2 -23 -131 -1 -105 18 -132 16 -140 -13 -2
-10 10 -67 28 -127 19 -60 31 -112 29 -116 -14 -22 -34 -3 -50 45 -9 28 -29
80 -45 115 -39 88 -55 86 -158 -24 -67 -72 -83 -85 -95 -74 -13 10 -4 25 59
101 72 86 91 128 65 144 -13 8 -100 30 -178 46 -48 9 -62 15 -58 26 4 8 6 18
6 23 0 5 13 5 29 0 16 -4 70 -14 120 -20 73 -10 94 -10 106 0 17 14 20 51 6
78 -5 9 -20 52 -33 95 -22 69 -23 79 -9 87 9 5 18 7 20 4 2 -2 22 -50 43 -106z
m-106 31 c39 -120 25 -145 -75 -135 -36 4 -70 11 -75 16 -19 18 102 165 129
157 6 -2 15 -19 21 -38z m463 -103 c30 -59 41 -146 19 -146 -32 0 -116 31
-132 49 -17 18 -17 21 0 53 26 51 66 99 78 95 6 -1 22 -25 35 -51z m-567 -166
c26 -7 55 -21 64 -31 16 -18 16 -21 0 -56 -10 -21 -30 -53 -46 -72 l-29 -34
-20 34 c-24 39 -51 121 -51 156 0 18 4 23 18 20 9 -3 38 -10 64 -17z m556
-108 l23 -7 -29 -45 c-16 -25 -48 -63 -72 -84 l-44 -40 -13 33 c-17 40 -27
115 -20 135 5 12 21 16 69 15 35 -1 73 -4 86 -7z m-301 -94 c11 -18 27 -52 36
-75 16 -41 16 -41 -7 -47 -29 -7 -112 8 -163 29 l-38 16 58 55 c32 30 66 54
76 54 11 0 27 -14 38 -32z"/>
<path d="M5286 4241 c-24 -27 -17 -70 16 -94 23 -17 31 -19 53 -9 14 6 31 23
37 37 25 56 -64 112 -106 66z"/>
<path d="M3528 3343 l-158 -87 0 -67 0 -68 138 65 c75 36 147 71 160 77 20 9
22 17 22 89 0 43 -1 78 -2 78 -2 0 -74 -39 -160 -87z"/>
<path d="M5930 3185 c0 -91 -2 -165 -4 -165 -2 0 -29 16 -61 35 -176 106 -398
46 -493 -132 -120 -227 -16 -525 205 -589 104 -30 266 -1 319 57 26 28 34 23
34 -21 l0 -41 88 3 87 3 0 505 0 505 -87 3 -88 3 0 -166z m-102 -268 c23 -14
54 -48 69 -74 24 -42 28 -58 28 -128 0 -58 -5 -89 -19 -115 -86 -164 -293
-167 -379 -7 -31 59 -31 184 0 242 44 82 105 117 199 112 47 -2 72 -9 102 -30z"/>
<path d="M2040 2810 l0 -481 88 3 87 3 0 288 c0 158 2 287 5 287 4 0 64 -130
135 -290 l129 -290 61 0 61 0 129 291 c71 160 132 292 135 294 3 2 5 -128 5
-288 l0 -292 88 -3 87 -3 0 481 0 480 -90 0 -90 0 -19 -37 c-10 -21 -80 -177
-156 -348 -75 -170 -140 -314 -144 -318 -7 -7 -71 128 -252 535 l-74 168 -92
0 -93 0 0 -480z"/>
<path d="M4060 3190 l0 -90 -45 0 -45 0 0 -75 0 -75 44 0 45 0 3 -242 c3 -234
4 -244 27 -284 39 -68 85 -88 219 -92 l112 -4 0 76 0 76 -74 0 c-110 0 -106
-10 -106 251 l0 219 90 0 91 0 -3 73 -3 72 -87 3 -88 3 0 89 0 90 -90 0 -90 0
0 -90z"/>
<path d="M3442 3094 c-29 -7 -67 -21 -84 -30 -57 -30 -124 -102 -154 -167 -27
-57 -29 -71 -29 -182 0 -104 3 -127 23 -170 36 -78 70 -121 125 -159 202 -137
508 -50 572 162 6 22 5 22 -87 22 -93 0 -94 0 -111 -29 -27 -46 -97 -75 -167
-68 -32 3 -72 13 -89 23 -39 23 -78 79 -87 122 l-6 32 283 2 284 3 -1 91 c-1
76 -6 101 -29 152 -73 162 -261 245 -443 196z m164 -149 c56 -16 96 -52 118
-107 9 -21 16 -40 16 -43 0 -3 -88 -5 -196 -5 l-195 0 7 23 c20 66 61 111 121
132 49 18 69 18 129 0z"/>
<path d="M4765 3096 c-155 -38 -259 -155 -285 -318 -32 -205 81 -393 263 -443
193 -52 390 32 473 200 24 50 29 74 32 156 5 121 -12 186 -71 265 -91 122
-256 178 -412 140z m216 -181 c62 -43 91 -108 91 -199 0 -78 -11 -115 -48
-164 -55 -71 -175 -98 -258 -57 -103 50 -144 211 -87 340 36 80 99 116 193
112 56 -2 74 -8 109 -32z"/>
<path d="M6515 3096 c-113 -27 -206 -101 -250 -200 -84 -185 -33 -407 117
-509 76 -51 153 -71 255 -64 151 9 264 84 326 215 30 63 32 74 32 177 0 103
-2 114 -31 175 -81 168 -262 252 -449 206z m212 -178 c60 -39 93 -112 93 -202
-1 -107 -38 -179 -110 -216 -111 -56 -235 -17 -283 89 -30 65 -30 190 0 246
44 84 102 117 194 113 51 -3 75 -9 106 -30z"/>
<path d="M250 1720 l0 -480 270 0 270 0 0 70 0 70 -180 0 -180 0 0 135 0 135
160 0 160 0 0 75 0 75 -160 0 -160 0 0 125 0 125 180 0 180 0 0 75 0 75 -270
0 -270 0 0 -480z"/>
<path d="M1226 1994 c-21 -7 -53 -23 -72 -35 l-34 -21 0 31 0 31 -85 0 -85 0
0 -380 0 -380 84 0 84 0 4 248 c2 207 6 252 20 277 25 45 58 72 107 85 84 22
165 -10 201 -79 18 -37 20 -58 20 -286 l0 -245 90 0 90 0 0 240 c0 135 -5 262
-11 292 -22 106 -99 195 -193 223 -62 19 -168 18 -220 -1z"/>
<path d="M2015 1999 c-57 -16 -139 -74 -176 -123 -58 -77 -83 -166 -77 -280 4
-77 10 -105 36 -159 89 -190 298 -265 480 -173 26 13 54 32 61 40 27 32 34 17
28 -62 -6 -89 -31 -149 -75 -181 -78 -55 -202 -48 -273 16 -21 19 -41 43 -44
54 -6 17 -16 19 -95 19 l-88 0 10 -42 c21 -95 73 -154 183 -205 55 -26 70 -28
180 -28 104 0 127 3 169 23 80 37 131 85 168 160 l33 67 3 437 3 438 -86 0
-85 0 0 -40 c0 -22 -3 -40 -6 -40 -3 0 -19 11 -35 24 -67 56 -219 83 -314 55z
m201 -154 c56 -16 105 -61 128 -115 73 -177 -42 -364 -215 -348 -152 15 -239
207 -161 358 30 59 57 84 118 105 50 18 70 18 130 0z"/>
<path d="M3009 2001 c-37 -12 -71 -31 -96 -54 l-23 -20 0 36 0 37 -90 0 -90 0
0 -380 0 -380 90 0 90 0 0 235 c0 255 4 278 54 325 22 20 40 25 96 28 l70 4 0
89 0 89 -37 -1 c-21 0 -50 -4 -64 -8z"/>
<path d="M3425 1997 c-146 -49 -229 -150 -255 -309 -21 -136 27 -289 116 -367
143 -126 371 -130 508 -10 45 40 87 101 101 147 6 22 5 22 -89 22 -86 0 -95
-2 -101 -20 -9 -30 -64 -68 -115 -79 -89 -20 -180 21 -220 99 -38 74 -52 70
260 70 l279 0 7 38 c10 51 -9 171 -35 224 -35 72 -86 124 -158 160 -59 29 -77
33 -162 35 -60 2 -111 -2 -136 -10z m229 -166 c39 -25 76 -77 76 -110 0 -21
-3 -21 -191 -21 l-190 0 6 23 c14 47 57 99 98 118 55 26 150 21 201 -10z"/>
<path d="M4319 1997 c-20 -8 -53 -24 -73 -36 l-36 -23 0 31 0 31 -90 0 -90 0
0 -380 0 -380 89 0 90 0 3 248 c3 217 5 252 22 284 27 55 78 83 151 83 77 0
122 -25 153 -85 21 -42 22 -55 22 -287 l0 -243 91 0 91 0 -4 268 c-5 298 -10
326 -75 401 -55 65 -121 94 -223 98 -55 2 -98 -2 -121 -10z"/>
<path d="M5093 1996 c-91 -29 -167 -99 -211 -195 -37 -81 -43 -223 -13 -318
35 -116 130 -214 234 -245 74 -21 176 -15 243 16 32 15 69 37 81 48 l23 21 0
-41 0 -42 90 0 90 0 0 380 0 380 -90 0 -90 0 0 -40 0 -40 -42 30 c-78 57 -216
77 -315 46z m246 -166 c72 -36 111 -110 111 -209 0 -76 -14 -119 -52 -165 -82
-99 -234 -100 -315 -2 -38 47 -53 96 -53 177 0 174 159 276 309 199z"/>
<path d="M5990 1993 c-63 -22 -124 -66 -165 -120 -104 -136 -99 -376 11 -521
63 -81 200 -138 306 -126 60 6 164 49 187 77 27 34 34 19 27 -60 -12 -134 -51
-189 -148 -213 -88 -23 -210 23 -239 89 l-14 31 -87 0 -87 0 6 -32 c8 -48 53
-126 88 -155 16 -15 59 -40 95 -57 61 -29 72 -31 185 -31 112 0 124 2 179 29
75 37 131 93 165 165 l26 56 3 438 3 437 -86 0 -85 0 0 -40 c0 -22 -3 -40 -6
-40 -3 0 -19 11 -35 24 -72 61 -228 85 -329 49z m204 -144 c98 -24 158 -111
158 -228 0 -152 -98 -252 -234 -239 -111 11 -188 110 -188 242 0 113 53 193
147 223 49 15 65 15 117 2z"/>
<path d="M6893 1991 c-101 -35 -160 -90 -211 -199 -24 -51 -27 -68 -27 -172 0
-108 2 -119 32 -182 55 -117 148 -186 282 -209 101 -18 215 10 305 75 34 25
106 131 106 158 0 16 -9 18 -87 18 l-88 0 -28 -35 c-39 -49 -81 -68 -150 -68
-95 1 -164 55 -192 151 l-6 22 286 0 287 0 -4 98 c-3 80 -9 108 -33 160 -39
87 -114 155 -202 182 -83 26 -198 26 -270 1z m223 -150 c45 -21 88 -70 99
-113 l7 -28 -196 0 -196 0 15 38 c20 46 60 90 100 108 43 19 123 17 171 -5z"/>
<path d="M7786 1990 c-26 -10 -56 -26 -65 -34 -25 -23 -31 -20 -31 14 l0 30
-85 0 -85 0 0 -380 0 -380 84 0 84 0 4 243 c4 264 10 293 63 335 71 56 189 50
243 -13 43 -49 52 -108 52 -350 l0 -215 84 0 85 0 3 248 c3 238 4 249 26 288
33 57 73 79 147 79 77 0 122 -25 153 -85 21 -42 22 -55 22 -287 l0 -243 91 0
90 0 -3 268 c-4 223 -7 275 -22 313 -23 63 -78 124 -140 157 -46 24 -62 27
-151 27 -89 0 -105 -3 -150 -27 -27 -14 -65 -41 -83 -60 l-32 -34 -49 47 c-35
33 -66 53 -102 63 -71 22 -172 20 -233 -4z"/>
<path d="M1680 608 c0 -22 100 -244 111 -246 9 -2 29 35 62 115 26 65 47 121
47 126 0 4 -6 7 -14 7 -9 0 -29 -38 -52 -95 -20 -52 -40 -95 -43 -95 -3 0 -22
42 -42 93 -23 57 -43 93 -53 95 -9 2 -16 2 -16 0z"/>
<path d="M2042 488 l3 -123 73 -3 c58 -2 72 0 72 12 0 11 -14 16 -57 18 l-58
3 0 40 0 40 48 3 c26 2 47 7 47 12 0 5 -21 10 -47 12 l-48 3 0 39 0 39 54 1
c34 1 56 6 58 14 4 9 -15 12 -71 12 l-77 0 3 -122z"/>
<path d="M2342 488 c2 -84 7 -123 15 -125 9 -3 13 22 15 93 l3 97 73 -97 c41
-53 78 -96 83 -96 5 0 9 56 9 125 0 103 -3 125 -15 125 -11 0 -15 -19 -17 -90
l-3 -90 -69 90 c-38 49 -75 90 -83 90 -11 0 -13 -23 -11 -122z"/>
<path d="M2710 485 l0 -125 50 0 c95 0 149 39 157 113 10 89 -41 137 -147 137
l-60 0 0 -125z m128 89 c32 -6 56 -62 48 -107 -9 -49 -47 -77 -102 -77 l-44 0
0 93 c0 52 2 96 5 99 5 5 51 1 93 -8z"/>
<path d="M3085 489 c-26 -66 -45 -123 -41 -126 9 -10 34 16 40 42 6 23 11 25
66 25 55 0 60 -2 66 -25 6 -26 31 -52 40 -42 4 3 -15 60 -42 126 -35 90 -52
121 -65 121 -13 0 -29 -31 -64 -121z m85 35 c11 -25 20 -50 20 -55 0 -5 -18
-9 -40 -9 -22 0 -40 3 -40 6 0 10 34 104 38 104 1 0 12 -21 22 -46z"/>
<path d="M3416 594 c-23 -23 -30 -62 -15 -80 8 -9 32 -25 55 -35 48 -20 58
-32 49 -59 -8 -26 -49 -36 -82 -21 -39 18 -53 -3 -15 -23 44 -23 79 -20 107 9
46 45 32 88 -41 120 -40 18 -54 29 -54 45 0 28 40 46 68 31 28 -15 42 -14 42
3 0 29 -88 37 -114 10z"/>
<path d="M3932 593 c-6 -10 -27 -61 -47 -113 -20 -52 -39 -101 -42 -107 -3 -7
2 -13 11 -13 9 0 22 16 30 35 15 34 17 35 70 35 54 0 56 -1 70 -35 15 -34 36
-48 36 -22 0 7 -20 62 -44 122 -44 110 -65 134 -84 98z m49 -90 l18 -43 -45 0
c-50 0 -50 0 -16 79 10 24 17 31 20 21 3 -8 13 -34 23 -57z"/>
<path d="M4200 514 c0 -92 1 -97 29 -125 33 -33 67 -37 112 -14 40 21 49 50
49 151 0 68 -3 84 -15 84 -12 0 -15 -16 -15 -84 0 -94 -20 -136 -66 -136 -49
0 -64 31 -64 130 0 73 -3 90 -15 90 -12 0 -15 -17 -15 -96z"/>
<path d="M4530 595 c0 -11 11 -15 40 -15 l40 0 0 -110 c0 -91 3 -110 15 -110
12 0 15 19 15 109 l0 110 37 3 c20 2 38 9 41 16 3 9 -20 12 -92 12 -79 0 -96
-3 -96 -15z"/>
<path d="M4892 597 c-78 -44 -78 -169 0 -217 39 -24 78 -26 118 -5 44 23 60
53 60 113 0 48 -4 58 -34 88 -28 28 -41 34 -77 34 -24 -1 -54 -6 -67 -13z
m126 -44 c39 -42 25 -129 -25 -152 -65 -30 -123 8 -123 81 0 96 87 138 148 71z"/>
<path d="M5230 485 c0 -77 4 -125 10 -125 6 0 10 38 10 95 0 52 3 95 8 95 4 0
24 -34 45 -75 22 -41 44 -75 50 -75 7 0 30 34 52 75 l40 76 5 -92 c3 -61 9
-94 18 -97 9 -3 12 26 12 122 0 107 -2 126 -15 126 -9 0 -23 -12 -31 -27 -9
-16 -30 -54 -48 -86 l-32 -58 -48 86 c-67 119 -76 115 -76 -40z"/>
<path d="M5672 582 c-104 -97 13 -271 138 -207 39 20 60 63 60 121 0 39 -5 51
-34 80 -30 30 -40 34 -84 34 -41 0 -55 -5 -80 -28z m146 -29 c76 -83 -44 -218
-123 -138 -34 33 -36 112 -2 142 42 39 87 38 125 -4z"/>
<path d="M5990 595 c0 -11 11 -15 40 -15 l40 0 0 -110 c0 -91 3 -110 15 -110
12 0 15 19 15 110 l0 110 40 0 c29 0 40 4 40 15 0 12 -17 15 -95 15 -78 0 -95
-3 -95 -15z"/>
<path d="M6320 485 c0 -104 2 -125 15 -125 13 0 15 21 15 125 0 104 -2 125
-15 125 -13 0 -15 -21 -15 -125z"/>
<path d="M6490 608 c0 -16 101 -243 109 -246 12 -4 28 26 75 142 41 101 42
106 22 106 -9 0 -29 -37 -51 -95 -21 -52 -40 -95 -44 -95 -3 0 -22 42 -41 93
-24 61 -41 93 -53 95 -9 2 -17 2 -17 0z"/>
<path d="M6855 490 c-27 -66 -46 -123 -42 -126 10 -10 34 14 41 41 6 23 11 25
64 25 57 0 58 0 71 -35 7 -19 19 -35 27 -35 8 0 14 3 14 7 0 4 -21 61 -47 125
-33 85 -51 118 -63 118 -12 0 -31 -34 -65 -120z m99 -7 c7 -21 4 -23 -33 -23
-23 0 -41 4 -41 9 0 5 10 31 21 58 l21 48 13 -35 c7 -19 15 -45 19 -57z"/>
<path d="M7180 590 c-20 -20 -26 -55 -12 -77 4 -6 28 -21 54 -32 52 -22 62
-33 53 -61 -8 -26 -49 -36 -82 -21 -39 18 -53 -3 -15 -23 55 -28 95 -17 121
32 22 42 6 70 -54 97 -57 25 -67 42 -39 69 19 19 25 20 59 4 30 -13 43 -5 25
17 -19 22 -86 19 -110 -5z"/>
</g>
</svg>
